<svg width="1920" height="850" viewBox="0 0 1920 850" fill="none" xmlns="http://www.w3.org/2000/svg">
<rect width="1920" height="850" fill="#F9F7F3"/>
<g clip-path="url(#clip0_71_399)">
<path opacity="0.6" d="M-47.769 563.443C-21.8654 582.458 14.6773 587.549 46.8918 579.823M43.9413 583.823C63.3154 582.354 79.4093 581.896 111.961 574.558M107.629 571.652C120.643 573.194 140.164 543.044 170.849 552.036M168.911 544.337C193.611 537.53 222.119 524.459 246.67 534.152M239.533 525.797C270.02 512.254 318.145 518.278 359.686 520.753M358.7 520.136C403.567 528.326 437.698 556.913 463.09 597.414M455.223 590.192C471.523 616.334 468.442 626.847 484.138 661.235M478.999 653.455C480.651 681.318 472.055 688.814 451.437 725.751M450.411 716.294C441.042 746.332 392.666 758.821 364.708 773.581M371.155 781.397C338.972 792.06 289.667 789.303 260.105 823.716M256.658 824.846C230.657 843.34 221.951 878.847 226.603 895.619M224.744 904.2C224.857 904.75 224.974 904.462 224.639 905" stroke="#AB9995" stroke-width="3" stroke-linecap="round" stroke-dasharray="9 9"/>
<path opacity="0.6" d="M1676.9 -27.5789C1665.6 62.1451 1600.81 113.089 1533.04 176.088M1542.02 169.712C1524.1 194.926 1517.3 205.082 1511.34 229.795M1504.94 233.399C1498.73 262.076 1509.08 275.507 1500.67 298.704M1506.78 301.05C1525.56 346.882 1554.8 390.548 1607.69 391.9M1611.65 392.76C1642.08 396.18 1656.2 390.456 1674.05 372.005M1672.37 373.795C1701.69 359.268 1714 357.687 1742.13 353.204M1745.54 352C1774.15 351.784 1822 385.183 1830.99 408.978M1833.71 411.159C1845.06 451.899 1835.33 478.334 1824.42 522.302M1833.57 522.683C1832.06 539.541 1820.62 571.841 1852.92 588.973M1843.62 596.561C1860.85 626.23 1886.52 649.036 1934.42 653.278M1931.65 657.701C1974.77 661.913 2003.55 621.76 2014.43 586.352" stroke="#AB9995" stroke-width="3" stroke-linecap="round" stroke-dasharray="9 9"/>
<path opacity="0.6" d="M1567.35 884.429C1541.89 877.993 1525.14 858.813 1527.22 831.932M1529.28 832.206C1523.14 809.707 1535.94 793.412 1558.88 782.375M1553.34 782.529C1580.25 768.998 1599.49 759.728 1604.78 742.277M1614.34 745.59C1629.28 733.609 1648.29 735.849 1666.06 739.847M1670.38 736.674C1676.39 751.297 1695.27 751.422 1711.87 755.591M1703.5 763.281C1712.9 783.485 1728.9 784.495 1744.09 793.737M1741.15 800.362C1772.28 827.07 1770.72 861.377 1784.61 914.079" stroke="#AB9995" stroke-width="3" stroke-linecap="round" stroke-dasharray="9 9"/>
<path opacity="0.6" d="M599.298 897.167C621.964 855.581 652.729 803.879 702.918 782.534M692.758 790.394C693.563 790.484 693.708 790.754 693.633 790.627M693.656 790.433C723.796 781.965 774.218 761.301 806.907 767.027M800.269 757.054C920.931 759.112 860.912 915.223 830.621 963.012" stroke="#AB9995" stroke-width="3" stroke-linecap="round" stroke-dasharray="9 9"/>
<path opacity="0.4" d="M-68.1489 278.122C-23.4636 288.413 10.0155 309.959 32.526 279.819M41.394 278.122C72.444 258.822 98.8603 233.217 129.416 207.072M129.425 203.395C149.652 185.176 157.958 166.376 173.59 162.356M177.686 167.306C217.704 156.026 275 170.861 305.168 208.157M297.419 210.613C302.166 225.412 316.673 249.453 319.452 272.379M311.43 280.67C312.289 300.874 300.046 330.141 300.117 351.132M299.966 353.132C283.977 379.443 319.88 424.472 358.611 433.79M354.172 438.049C377.503 441.249 418.903 450.143 441.602 450.905M434.984 442.437C465.576 426.021 491.847 405.675 498.622 392.574M503.059 390.213C518.898 379.198 526.513 366.164 524.781 357.477M531.79 354.548C539.625 338.232 544.981 325.671 550.795 311.435M553.443 313.787C559.45 285.531 580.023 264.238 603.086 246.214M598.732 249.534C625.131 231.674 671.647 207.535 707.354 181.062M697.519 187.827C734.657 181.017 783.953 154.164 819.452 185.663M827.725 176.222C860.102 188.357 914.073 219.183 918.726 257.174M923.965 266.8C937.814 290.078 932.567 309.764 925.634 344.483M927.927 336.998C931.642 365.666 933.501 385.662 928.957 405.202M923.965 395.308C917.236 418.352 908.775 454.597 871.071 464.055M879.525 469.185C848.017 491.04 801.06 521.915 817.021 585.377M813.855 576.181C817.491 641.039 905.952 649.283 937.326 631.938M944.345 639.869C985.837 646.753 1004.89 624.783 1053.5 614.586M1044.97 620.904C1080.36 605.022 1135.28 624.961 1170.73 634.293M1165.69 629.112C1198.61 642.444 1213.43 660.3 1227.83 701.188M1225.84 693.366C1236.16 722.735 1198.53 744.37 1191.46 764.203M1187.21 757.62C1178.38 759.922 1159.44 775.706 1151.58 782.932M1143.05 792.861C1138.01 815.114 1145.77 828.794 1143.66 845.016M1150.13 836.593C1195.57 888.4 1263.53 875.176 1338.81 862.887M1331 869.144C1360.6 878.21 1403.18 861.692 1451.18 890.178M1448.47 880.608C1453.26 892.367 1481.9 901.82 1491.82 895.918" stroke="#AB9995" stroke-width="3" stroke-linecap="round" stroke-dasharray="9 9"/>
</g>
<defs>
<clipPath id="clip0_71_399">
<rect width="1920" height="850" fill="white"/>
</clipPath>
</defs>
</svg>
